<svg xmlns="http://www.w3.org/2000/svg" id="mainsvg" width="217.67166442871095" height="361.90000000000003" viewBox="-10 -10 197.88333129882812 329"><defs><marker id="arrow" viewBox="0 0 10 10" refX="10" refY="5" markerWidth="5" markerHeight="5" orient="auto-start-reverse" fill="black"><path d="M 0 0 L 10 5 L 0 10 z"/></marker><filter id="shadowOLD" x="-50%" y="-50%" width="250%" height="250%"><feDropShadow flood-color="black" flood-opacity="0.3" dx="1" dy="1" stdDeviation="2"> </feDropShadow></filter><filter id="shadow-path" filterUnits="userSpaceOnUse" x="-10" y="-10" width="197.88333129882812px" height="329px"><feDropShadow flood-color="black" flood-opacity="0.1" dx="1" dy="1" stdDeviation="1"> </feDropShadow></filter><filter id="shadow" filterUnits="userSpaceOnUse" x="-10" y="-10" width="297.8833312988281px" height="429px"><feDropShadow flood-color="black" flood-opacity="0.1" dx="1" dy="1" stdDeviation="1"> </feDropShadow></filter></defs><rect x="-10" y="-10" width="197.88333129882812" height="329" fill="#fff"/><path transform="rotate(0,0, 0) scale(1)" d="M88.94166564941406,35L88.94166564941406,39.166666666666664C88.94166564941406,43.333333333333336,88.94166564941406,51.666666666666664,88.94166564941406,60C88.94166564941406,68.33333333333333,88.94166564941406,76.66666666666667,88.94166564941406,80.83333333333333L88.94166564941406,85" stroke="black" stroke-dasharray="none" stroke-width="2" fill="none" marker-end="url(#arrow)"/><path transform="rotate(0,0, 0) scale(1)" d="M88.94166564941406,139L88.94166564941406,143.16666666666666C88.94166564941406,147.33333333333334,88.94166564941406,155.66666666666666,88.94166564941406,164C88.94166564941406,172.33333333333334,88.94166564941406,180.66666666666666,88.94166564941406,184.83333333333334L88.94166564941406,189" stroke="black" stroke-dasharray="none" stroke-width="2" fill="none" marker-end="url(#arrow)"/><path transform="rotate(0,0, 0) scale(1)" d="M88.94166564941406,224L88.94166564941406,228.16666666666666C88.94166564941406,232.33333333333334,88.94166564941406,240.66666666666666,88.94166564941406,249C88.94166564941406,257.3333333333333,88.94166564941406,265.6666666666667,88.94166564941406,269.8333333333333L88.94166564941406,274" stroke="black" stroke-dasharray="none" stroke-width="2" fill="none" marker-end="url(#arrow)"/><g transform="translate(0, 85)"><rect width="177.88333129882812" height="54" stroke="black" fill="white" stroke-width="2" transform="translate(0, 0)" rx="3"/><text fill="black" font-size="16" font-weight="normal" transform="translate(8, 8)" alignment-baseline="middle" font-family="Arial"><tspan x="0" dy="16" font-family="Arial" font-size="16" font-weight="normal">Update dictionary with </tspan><tspan x="0" dy="16" font-family="Arial" font-size="16" font-weight="normal">   all possible inputs</tspan></text></g><g transform="translate(16.916664123535156, 0)"><rect width="144.0500030517578" height="35" stroke="black" fill="white" stroke-width="2" transform="translate(0, 0)" rx="3"/><text fill="black" font-size="16" font-weight="normal" transform="translate(8, 8)" alignment-baseline="middle" font-family="Arial"><tspan x="0" dy="16" font-family="Arial" font-size="16" font-weight="normal">Check if file exists</tspan></text></g><g transform="translate(37.79999923706055, 189)"><rect width="102.28333282470703" height="35" stroke="black" fill="white" stroke-width="2" transform="translate(0, 0)" rx="3"/><text fill="black" font-size="16" font-weight="normal" transform="translate(8, 8)" alignment-baseline="middle" font-family="Arial"><tspan x="0" dy="16" font-family="Arial" font-size="16" font-weight="normal">Convert text</tspan></text></g><g transform="translate(37.06666564941406, 274)"><rect width="103.75" height="35" stroke="black" fill="white" stroke-width="2" transform="translate(0, 0)" rx="3"/><text fill="black" font-size="16" font-weight="normal" transform="translate(8, 8)" alignment-baseline="middle" font-family="Arial"><tspan x="0" dy="16" font-family="Arial" font-size="16" font-weight="normal">Write to disk</tspan></text></g></svg>