<svg xmlns="http://www.w3.org/2000/svg" id="mainsvg" width="174.625" height="341" viewBox="-10 -10 158.75 310"><defs><marker id="arrow" viewBox="0 0 10 10" refX="10" refY="5" markerWidth="5" markerHeight="5" orient="auto-start-reverse" fill="black"><path d="M 0 0 L 10 5 L 0 10 z"/></marker><filter id="shadowOLD" x="-50%" y="-50%" width="250%" height="250%"><feDropShadow flood-color="black" flood-opacity="0.3" dx="1" dy="1" stdDeviation="2"> </feDropShadow></filter><filter id="shadow-path" filterUnits="userSpaceOnUse" x="-10" y="-10" width="158.75px" height="310px"><feDropShadow flood-color="black" flood-opacity="0.1" dx="1" dy="1" stdDeviation="1"> </feDropShadow></filter><filter id="shadow" filterUnits="userSpaceOnUse" x="-10" y="-10" width="258.75px" height="410px"><feDropShadow flood-color="black" flood-opacity="0.1" dx="1" dy="1" stdDeviation="1"> </feDropShadow></filter></defs><rect x="-10" y="-10" width="158.75" height="310" fill="#fff"/><path transform="rotate(0,0, 0) scale(1)" d="M69.375,35L69.375,39.166666666666664C69.375,43.333333333333336,69.375,51.666666666666664,69.375,60C69.375,68.33333333333333,69.375,76.66666666666667,69.375,80.83333333333333L69.375,85" stroke="black" stroke-dasharray="none" stroke-width="2" fill="none" marker-end="url(#arrow)"/><path transform="rotate(0,0, 0) scale(1)" d="M69.375,120L69.375,124.16666666666667C69.375,128.33333333333334,69.375,136.66666666666666,69.375,145C69.375,153.33333333333334,69.375,161.66666666666666,69.375,165.83333333333334L69.375,170" stroke="black" stroke-dasharray="none" stroke-width="2" fill="none" marker-end="url(#arrow)"/><path transform="rotate(0,0, 0) scale(1)" d="M69.375,205L69.375,209.16666666666666C69.375,213.33333333333334,69.375,221.66666666666666,69.375,230C69.375,238.33333333333334,69.375,246.66666666666666,69.375,250.83333333333334L69.375,255" stroke="black" stroke-dasharray="none" stroke-width="2" fill="none" marker-end="url(#arrow)"/><g transform="translate(25.775001525878906, 85)"><rect width="87.19999694824219" height="35" stroke="black" fill="white" stroke-width="2" transform="translate(0, 0)" rx="3"/><text fill="black" font-size="16" font-weight="normal" transform="translate(8, 8)" alignment-baseline="middle" font-family="Arial"><tspan x="0" dy="16" font-family="Arial" font-size="16" font-weight="normal">Load data</tspan></text></g><g transform="translate(16.00833511352539, 0)"><rect width="106.73332977294922" height="35" stroke="black" fill="white" stroke-width="2" transform="translate(0, 0)" rx="3"/><text fill="black" font-size="16" font-weight="normal" transform="translate(8, 8)" alignment-baseline="middle" font-family="Arial"><tspan x="0" dy="16" font-family="Arial" font-size="16" font-weight="normal">Get filename</tspan></text></g><g transform="translate(8.891666412353516, 170)"><rect width="120.96666717529297" height="35" stroke="black" fill="white" stroke-width="2" transform="translate(0, 0)" rx="3"/><text fill="black" font-size="16" font-weight="normal" transform="translate(8, 8)" alignment-baseline="middle" font-family="Arial"><tspan x="0" dy="16" font-family="Arial" font-size="16" font-weight="normal">Reshape array</tspan></text></g><g transform="translate(0, 255)"><rect width="138.75" height="35" stroke="black" fill="white" stroke-width="2" transform="translate(0, 0)" rx="3"/><text fill="black" font-size="16" font-weight="normal" transform="translate(8, 8)" alignment-baseline="middle" font-family="Arial"><tspan x="0" dy="16" font-family="Arial" font-size="16" font-weight="normal">Count cell bodies</tspan></text></g></svg>