<svg xmlns="http://www.w3.org/2000/svg" id="mainsvg" width="531.1349983215332" height="546.7" viewBox="-10 -10 482.8499984741211 497"><defs><marker id="arrow" viewBox="0 0 10 10" refX="10" refY="5" markerWidth="5" markerHeight="5" orient="auto-start-reverse" fill="black"><path d="M 0 0 L 10 5 L 0 10 z"/></marker><filter id="shadowOLD" x="-50%" y="-50%" width="250%" height="250%"><feDropShadow flood-color="black" flood-opacity="0.3" dx="1" dy="1" stdDeviation="2"> </feDropShadow></filter><filter id="shadow-path" filterUnits="userSpaceOnUse" x="-10" y="-10" width="482.8499984741211px" height="497px"><feDropShadow flood-color="black" flood-opacity="0.1" dx="1" dy="1" stdDeviation="1"> </feDropShadow></filter><filter id="shadow" filterUnits="userSpaceOnUse" x="-10" y="-10" width="582.8499984741211px" height="597px"><feDropShadow flood-color="black" flood-opacity="0.1" dx="1" dy="1" stdDeviation="1"> </feDropShadow></filter></defs><rect x="-10" y="-10" width="482.8499984741211" height="497" fill="#fff"/><path transform="rotate(0,0, 0) scale(1)" d="M212.75,35L212.75,39.166666666666664C212.75,43.333333333333336,212.75,51.666666666666664,212.75,60C212.75,68.33333333333333,212.75,76.66666666666667,212.75,80.83333333333333L212.75,85" stroke="black" stroke-dasharray="none" stroke-width="2" fill="none" marker-end="url(#arrow)"/><path transform="rotate(0,0, 0) scale(1)" d="M155.61764705882354,120L137.38970588235296,125.58333333333333C119.16176470588236,131.16666666666666,82.70588235294117,142.33333333333334,64.4779411764706,153.5C46.25,164.66666666666666,46.25,175.83333333333334,46.25,181.41666666666666L46.25,187" stroke="black" stroke-dasharray="none" stroke-width="2" fill="none" marker-end="url(#arrow)"/><g transform="translate(10.458332061767578, 141)"><rect width="79.58333587646484" height="25" stroke="none" fill="white" stroke-width="0" transform="translate(0, 0)" rx="2"/><text fill="black" font-size="14" font-weight="normal" transform="translate(4, 4)" alignment-baseline="middle" font-family="Arial"><tspan x="0" dy="14" font-family="Arial" font-size="14" font-weight="normal">check_date</tspan></text></g><path transform="rotate(0,0, 0) scale(1)" d="M212.75,120L212.75,125.58333333333333C212.75,131.16666666666666,212.75,142.33333333333334,212.75,153.5C212.75,164.66666666666666,212.75,175.83333333333334,212.75,181.41666666666666L212.75,187" stroke="black" stroke-dasharray="none" stroke-width="2" fill="none" marker-end="url(#arrow)"/><g transform="translate(181.625, 141)"><rect width="70.25" height="25" stroke="none" fill="white" stroke-width="0" transform="translate(0, 0)" rx="2"/><text fill="black" font-size="14" font-weight="normal" transform="translate(4, 4)" alignment-baseline="middle" font-family="Arial"><tspan x="0" dy="14" font-family="Arial" font-size="14" font-weight="normal">check_pix</tspan></text></g><path transform="rotate(0,0, 0) scale(1)" d="M276.2904409146776,120L296.56286730174145,125.58333333333333C316.8352936888053,131.16666666666666,357.38014646293294,142.33333333333334,377.6525728499967,153.5C397.92499923706055,164.66666666666666,397.92499923706055,175.83333333333334,397.92499923706055,181.41666666666666L397.92499923706055,187" stroke="black" stroke-dasharray="none" stroke-width="2" fill="none" marker-end="url(#arrow)"/><g transform="translate(366.4166660308838, 141)"><rect width="71.01666641235352" height="25" stroke="none" fill="white" stroke-width="0" transform="translate(0, 0)" rx="2"/><text fill="black" font-size="14" font-weight="normal" transform="translate(4, 4)" alignment-baseline="middle" font-family="Arial"><tspan x="0" dy="14" font-family="Arial" font-size="14" font-weight="normal">check_fps</tspan></text></g><path transform="rotate(0,0, 0) scale(1)" d="M46.25,222L46.25,226.16666666666666C46.25,230.33333333333334,46.25,238.66666666666666,62.5735294117647,247C78.8970588235294,255.33333333333334,111.54411764705883,263.6666666666667,127.86764705882354,267.8333333333333L144.19117647058823,272" stroke="black" stroke-dasharray="none" stroke-width="2" fill="none" marker-end="url(#arrow)"/><path transform="rotate(0,0, 0) scale(1)" d="M212.75,222L212.75,226.16666666666666C212.75,230.33333333333334,212.75,238.66666666666666,212.75,247C212.75,255.33333333333334,212.75,263.6666666666667,212.75,267.8333333333333L212.75,272" stroke="black" stroke-dasharray="none" stroke-width="2" fill="none" marker-end="url(#arrow)"/><path transform="rotate(0,0, 0) scale(1)" d="M397.92499923706055,222L397.92499923706055,226.16666666666666C397.92499923706055,230.33333333333334,397.92499923706055,238.66666666666666,379.7705875471527,247C361.6161758572448,255.33333333333334,325.307352477429,263.6666666666667,307.1529407875211,267.8333333333333L288.9985290976132,272" stroke="black" stroke-dasharray="none" stroke-width="2" fill="none" marker-end="url(#arrow)"/><path transform="rotate(0,0, 0) scale(1)" d="M212.75,307L212.75,311.1666666666667C212.75,315.3333333333333,212.75,323.6666666666667,212.75,332C212.75,340.3333333333333,212.75,348.6666666666667,212.75,352.8333333333333L212.75,357" stroke="black" stroke-dasharray="none" stroke-width="2" fill="none" marker-end="url(#arrow)"/><path transform="rotate(0,0, 0) scale(1)" d="M212.75,392L212.75,396.1666666666667C212.75,400.3333333333333,212.75,408.6666666666667,212.75,417C212.75,425.3333333333333,212.75,433.6666666666667,212.75,437.8333333333333L212.75,442" stroke="black" stroke-dasharray="none" stroke-width="2" fill="none" marker-end="url(#arrow)"/><g transform="translate(89.125, 85)"><rect width="247.25" height="35" stroke="black" fill="white" stroke-width="2" transform="translate(0, 0)" rx="3"/><text fill="black" font-size="16" font-weight="normal" transform="translate(8, 8)" alignment-baseline="middle" font-family="Arial"><tspan x="0" dy="16" font-family="Arial" font-size="16" font-weight="normal">Verify filename contains all fields</tspan></text></g><g transform="translate(159.3833351135254, 0)"><rect width="106.73332977294922" height="35" stroke="black" fill="white" stroke-width="2" transform="translate(0, 0)" rx="3"/><text fill="black" font-size="16" font-weight="normal" transform="translate(8, 8)" alignment-baseline="middle" font-family="Arial"><tspan x="0" dy="16" font-family="Arial" font-size="16" font-weight="normal">Get filename</tspan></text></g><g transform="translate(0, 187)"><rect width="92.5" height="35" stroke="black" fill="white" stroke-width="2" transform="translate(0, 0)" rx="3"/><text fill="black" font-size="16" font-weight="normal" transform="translate(8, 8)" alignment-baseline="middle" font-family="Arial"><tspan x="0" dy="16" font-family="Arial" font-size="16" font-weight="normal">With date?</tspan></text></g><g transform="translate(142.5, 187)"><rect width="140.5" height="35" stroke="black" fill="white" stroke-width="2" transform="translate(0, 0)" rx="3"/><text fill="black" font-size="16" font-weight="normal" transform="translate(8, 8)" alignment-baseline="middle" font-family="Arial"><tspan x="0" dy="16" font-family="Arial" font-size="16" font-weight="normal">With pixelization?</tspan></text></g><g transform="translate(333, 187)"><rect width="129.8499984741211" height="35" stroke="black" fill="white" stroke-width="2" transform="translate(0, 0)" rx="3"/><text fill="black" font-size="16" font-weight="normal" transform="translate(8, 8)" alignment-baseline="middle" font-family="Arial"><tspan x="0" dy="16" font-family="Arial" font-size="16" font-weight="normal">With framerate?</tspan></text></g><g transform="translate(122.9000015258789, 272)"><rect width="179.6999969482422" height="35" stroke="black" fill="white" stroke-width="2" transform="translate(0, 0)" rx="3"/><text fill="black" font-size="16" font-weight="normal" transform="translate(8, 8)" alignment-baseline="middle" font-family="Arial"><tspan x="0" dy="16" font-family="Arial" font-size="16" font-weight="normal">Load data into memory</tspan></text></g><g transform="translate(152.26666641235352, 357)"><rect width="120.96666717529297" height="35" stroke="black" fill="white" stroke-width="2" transform="translate(0, 0)" rx="3"/><text fill="black" font-size="16" font-weight="normal" transform="translate(8, 8)" alignment-baseline="middle" font-family="Arial"><tspan x="0" dy="16" font-family="Arial" font-size="16" font-weight="normal">Reshape array</tspan></text></g><g transform="translate(143.375, 442)"><rect width="138.75" height="35" stroke="black" fill="white" stroke-width="2" transform="translate(0, 0)" rx="3"/><text fill="black" font-size="16" font-weight="normal" transform="translate(8, 8)" alignment-baseline="middle" font-family="Arial"><tspan x="0" dy="16" font-family="Arial" font-size="16" font-weight="normal">Count cell bodies</tspan></text></g></svg>